<svg xmlns="http://www.w3.org/2000/svg" version="1.1" xmlns:xlink="http://www.w3.org/1999/xlink" xmlns:svgjs="http://svgjs.dev/svgjs" width="1500" height="318" viewBox="0 0 1500 318"><g transform="matrix(1,0,0,1,-0.9090909090909918,-0.6784687734793806)"><svg viewBox="0 0 396 84" data-background-color="#ffffff" preserveAspectRatio="xMidYMid meet" height="318" width="1500" xmlns="http://www.w3.org/2000/svg" xmlns:xlink="http://www.w3.org/1999/xlink"><g id="tight-bounds" transform="matrix(1,0,0,1,0.2400000000000091,0.1792181665794601)"><svg viewBox="0 0 395.52 83.64156366684107" height="83.64156366684107" width="395.52"><g><svg viewBox="0 0 511.0091828011164 108.06433833333334" height="83.64156366684107" width="395.52"><g transform="matrix(1,0,0,1,115.48918280111644,14.93508583333334)"><svg viewBox="0 0 395.52 78.19416666666666" height="78.19416666666666" width="395.52"><g id="textblocktransform"><svg viewBox="0 0 395.52 78.19416666666666" height="78.19416666666666" width="395.52" id="textblock"><g><svg viewBox="0 0 395.52 78.19416666666666" height="78.19416666666666" width="395.52"><g transform="matrix(1,0,0,1,0,0)"><svg width="395.52" viewBox="2.45 -34.8 230.38000000000002 45.55" height="78.19416666666666" data-palette-color="#111111"><g class="wordmark-text-0" data-fill-palette-color="primary" id="text-0"><path d="M9.9-7.25Q11.6-4.3 16.4-4.3 21.2-4.3 22.88-7.2 24.55-10.1 24.55-16.93 24.55-23.75 22.83-26.85 21.1-29.95 16.4-29.95 11.7-29.95 9.95-26.85 8.2-23.75 8.2-16.98 8.2-10.2 9.9-7.25ZM27.23-3.65Q24.15 0.55 16.4 0.55 8.65 0.55 5.55-3.68 2.45-7.9 2.45-16.95 2.45-26 5.58-30.4 8.7-34.8 16.4-34.8 24.1-34.8 27.2-30.43 30.3-26.05 30.3-16.95 30.3-7.85 27.23-3.65ZM39.45 0L34.15-25 39.5-25 43.45-4.65 44.45-4.65 49.2-24.5 54.8-24.5 59.55-4.65 60.55-4.65 64.45-25 69.85-25 64.55 0 55.9 0 52-17.15 48.1 0 39.45 0ZM79.95-19.4L79.95 0 74.5 0 74.5-25 79.9-25 79.9-23.45Q83.55-25.55 86.8-25.55L86.8-25.55Q91.8-25.55 93.62-22.73 95.45-19.9 95.45-13.4L95.45-13.4 95.45 0 90.05 0 90.05-13.25Q90.05-17.3 89.17-19 88.3-20.7 85.6-20.7L85.6-20.7Q83.05-20.7 80.7-19.7L80.7-19.7 79.95-19.4ZM107.24 10.75L101.79 10.75 101.79-25 107.19-25 107.19-23.45Q110.64-25.55 113.64-25.55L113.64-25.55Q118.59-25.55 120.89-22.53 123.19-19.5 123.19-12.38 123.19-5.25 120.57-2.35 117.94 0.55 111.99 0.55L111.99 0.55Q109.94 0.55 107.24 0.1L107.24 0.1 107.24 10.75ZM112.69-20.7L112.69-20.7Q110.34-20.7 107.99-19.65L107.99-19.65 107.24-19.3 107.24-4.55Q109.24-4.15 111.64-4.15L111.64-4.15Q115.04-4.15 116.34-6.1 117.64-8.05 117.64-12.75L117.64-12.75Q117.64-20.7 112.69-20.7ZM130.02-22.3Q132.59-25.55 138.59-25.55 144.59-25.55 147.17-22.3 149.74-19.05 149.74-12.55 149.74-6.05 147.24-2.75 144.74 0.55 138.59 0.55 132.44 0.55 129.94-2.75 127.44-6.05 127.44-12.55 127.44-19.05 130.02-22.3ZM134.09-6.05Q135.24-4.05 138.59-4.05 141.94-4.05 143.09-6.05 144.24-8.05 144.24-12.6 144.24-17.15 143.02-19.05 141.79-20.95 138.59-20.95 135.39-20.95 134.17-19.05 132.94-17.15 132.94-12.6 132.94-8.05 134.09-6.05ZM158.49 0L153.19-25 158.54-25 162.49-4.65 163.49-4.65 168.24-24.5 173.84-24.5 178.59-4.65 179.59-4.65 183.49-25 188.89-25 183.59 0 174.94 0 171.04-17.15 167.14 0 158.49 0ZM211.34-4.5L211.34-4.5 212.74-4.65 212.84-0.6Q207.14 0.55 202.74 0.55L202.74 0.55Q197.19 0.55 194.76-2.5 192.34-5.55 192.34-12.25L192.34-12.25Q192.34-25.55 203.19-25.55L203.19-25.55Q213.69-25.55 213.69-14.1L213.69-14.1 213.34-10.2 197.84-10.2Q197.89-7.1 199.19-5.65 200.49-4.2 204.04-4.2 207.59-4.2 211.34-4.5ZM197.79-14.4L208.34-14.4Q208.34-18.1 207.16-19.58 205.99-21.05 203.19-21.05 200.39-21.05 199.11-19.5 197.84-17.95 197.79-14.4L197.79-14.4ZM224.38 0L218.93 0 218.93-25 224.33-25 224.33-22Q228.58-24.75 232.83-25.55L232.83-25.55 232.83-20.1Q228.53-19.25 225.48-17.9L225.48-17.9 224.38-17.45 224.38 0Z" fill="#111111" data-fill-palette-color="primary"></path></g></svg></g></svg></g></svg></g></svg></g><g><svg viewBox="0 0 97.02941671111644 108.06433833333334" height="108.06433833333334" width="97.02941671111644"><g><svg xmlns="http://www.w3.org/2000/svg" xmlns:xlink="http://www.w3.org/1999/xlink" version="1.1" x="0" y="0" viewBox="42.526999999999994 41.676 14.948 16.648000000000003" enable-background="new 0 0 100 100" xml:space="preserve" height="108.06433833333334" width="97.02941671111644" class="icon-icon-0" data-fill-palette-color="accent" id="icon-0"><path fill="#ffdc00" d="M50 51.661c0.731 0 1.324-0.593 1.324-1.324V43c0-0.731-0.593-1.324-1.324-1.324S48.676 42.269 48.676 43v7.337C48.676 51.068 49.269 51.661 50 51.661z" data-fill-palette-color="accent"></path><path fill="#ffdc00" d="M55.15 45.481c-0.529-0.505-1.366-0.484-1.872 0.045-0.504 0.53-0.484 1.368 0.046 1.872 0.968 0.923 1.501 2.149 1.501 3.453 0 2.661-2.165 4.825-4.825 4.825-0.75 0-1.478-0.176-2.153-0.516-0.125-0.064-0.25-0.132-0.365-0.201-0.582-0.358-1.075-0.829-1.464-1.396-0.075-0.109-0.149-0.223-0.214-0.338-0.412-0.727-0.629-1.547-0.629-2.374 0-1.306 0.533-2.532 1.5-3.453 0.53-0.504 0.551-1.342 0.047-1.872s-1.343-0.55-1.873-0.046c-1.498 1.426-2.322 3.333-2.322 5.371 0 1.284 0.336 2.556 0.973 3.677 0.1 0.178 0.213 0.354 0.332 0.53 0.602 0.877 1.363 1.603 2.27 2.159 0.174 0.106 0.355 0.205 0.545 0.303 1.059 0.533 2.188 0.804 3.354 0.804 4.121 0 7.474-3.353 7.474-7.473C57.474 48.815 56.648 46.908 55.15 45.481z" data-fill-palette-color="accent"></path></svg></g></svg></g></svg></g><defs></defs></svg><rect width="395.52" height="83.64156366684107" fill="none" stroke="none" visibility="hidden"></rect></g></svg></g></svg>