<svg xmlns="http://www.w3.org/2000/svg" version="1.1" xmlns:xlink="http://www.w3.org/1999/xlink" xmlns:svgjs="http://svgjs.dev/svgjs" width="1500" height="276" viewBox="0 0 1500 276"><g transform="matrix(1,0,0,1,-0.9090909090909918,-0.17721992270190867)"><svg viewBox="0 0 396 73" data-background-color="#040505" preserveAspectRatio="xMidYMid meet" height="276" width="1500" xmlns="http://www.w3.org/2000/svg" xmlns:xlink="http://www.w3.org/1999/xlink"><g id="tight-bounds" transform="matrix(1,0,0,1,0.2400000000000091,0.046873385352313335)"><svg viewBox="0 0 395.52 72.90625322929537" height="72.90625322929537" width="395.52"><g><svg viewBox="0 0 492.5498698702417 90.7917818082937" height="72.90625322929537" width="395.52"><g transform="matrix(1,0,0,1,97.02986987024173,12.547923535010206)"><svg viewBox="0 0 395.52 65.6959347382733" height="65.6959347382733" width="395.52"><g id="textblocktransform"><svg viewBox="0 0 395.52 65.6959347382733" height="65.6959347382733" width="395.52" id="textblock"><g><svg viewBox="0 0 395.52 65.6959347382733" height="65.6959347382733" width="395.52"><g transform="matrix(1,0,0,1,0,0)"><svg width="395.52" viewBox="2.5 -25.55 221.38 36.650000000000006" height="65.6959347382733" data-palette-color="#dee0e4"><g class="wordmark-text-0" data-fill-palette-color="primary" id="text-0"><path d="M2.5-12.55Q2.5-19.4 4.95-22.45 7.4-25.5 13.23-25.5 19.05-25.5 21.48-22.45 23.9-19.4 23.9-12.55 23.9-5.7 21.6-2.6 19.3 0.5 13.2 0.5 7.1 0.5 4.8-2.6 2.5-5.7 2.5-12.55ZM6.35-12.63Q6.35-7.15 7.68-4.95 9-2.75 13.23-2.75 17.45-2.75 18.75-4.93 20.05-7.1 20.05-12.6 20.05-18.1 18.6-20.18 17.15-22.25 13.23-22.25 9.3-22.25 7.83-20.18 6.35-18.1 6.35-12.63ZM33.9 0L27.95-25 31.7-25 36.75-3.25 37.55-3.25 43.5-24.5 47.4-24.5 53.35-3.25 54.2-3.25 59.2-25 62.95-25 57 0 50.75 0 45.45-19.55 40.15 0 33.9 0ZM71.84-20.3L71.84 0 68.09 0 68.09-25 71.8-25 71.8-23.25Q75.84-25.5 79.55-25.5L79.55-25.5Q84.55-25.5 86.27-22.8 88-20.1 88-13.2L88-13.2 88 0 84.3 0 84.3-13.1Q84.3-18.3 83.27-20.23 82.25-22.15 78.9-22.15L78.9-22.15Q77.3-22.15 75.52-21.68 73.75-21.2 72.8-20.75L72.8-20.75 71.84-20.3ZM98.69 11.1L94.94 11.1 94.94-25 98.64-25 98.64-23.2Q102.44-25.5 106.14-25.5L106.14-25.5Q110.89-25.5 113.04-22.48 115.19-19.45 115.19-12.5 115.19-5.55 112.67-2.53 110.14 0.5 104.29 0.5L104.29 0.5Q101.24 0.5 98.69-0.05L98.69-0.05 98.69 11.1ZM105.59-22.15L105.59-22.15Q104.09-22.15 102.37-21.65 100.64-21.15 99.64-20.65L99.64-20.65 98.69-20.15 98.69-3.3Q102.24-2.75 104.09-2.75L104.09-2.75Q108.14-2.75 109.77-5.05 111.39-7.35 111.39-12.55 111.39-17.75 109.92-19.95 108.44-22.15 105.59-22.15ZM120.19-12.55Q120.19-19.4 122.64-22.45 125.09-25.5 130.91-25.5 136.74-25.5 139.16-22.45 141.59-19.4 141.59-12.55 141.59-5.7 139.29-2.6 136.99 0.5 130.89 0.5 124.79 0.5 122.49-2.6 120.19-5.7 120.19-12.55ZM124.04-12.63Q124.04-7.15 125.36-4.95 126.69-2.75 130.91-2.75 135.14-2.75 136.44-4.93 137.74-7.1 137.74-12.6 137.74-18.1 136.29-20.18 134.84-22.25 130.91-22.25 126.99-22.25 125.52-20.18 124.04-18.1 124.04-12.63ZM151.59 0L145.64-25 149.39-25 154.44-3.25 155.24-3.25 161.19-24.5 165.09-24.5 171.04-3.25 171.89-3.25 176.89-25 180.64-25 174.69 0 168.44 0 163.14-19.55 157.84 0 151.59 0ZM202.78-3.1L202.78-3.1 204.24-3.25 204.34-0.3Q198.63 0.5 194.59 0.5L194.59 0.5Q189.19 0.5 186.94-2.63 184.69-5.75 184.69-12.35L184.69-12.35Q184.69-25.5 195.13-25.5L195.13-25.5Q200.19-25.5 202.69-22.68 205.19-19.85 205.19-13.8L205.19-13.8 204.99-10.95 188.49-10.95Q188.49-6.8 189.99-4.8 191.49-2.8 195.21-2.8 198.94-2.8 202.78-3.1ZM188.44-13.95L201.44-13.95Q201.44-18.55 199.96-20.45 198.49-22.35 195.16-22.35 191.84-22.35 190.16-20.35 188.49-18.35 188.44-13.95L188.44-13.95ZM214.78 0L211.03 0 211.03-25 214.73-25 214.73-21.6Q219.08-24.6 223.88-25.55L223.88-25.55 223.88-21.75Q221.78-21.35 219.51-20.5 217.23-19.65 216.03-19L216.03-19 214.78-18.35 214.78 0Z" fill="#dee0e4" data-fill-palette-color="primary"></path></g></svg></g></svg></g></svg></g></svg></g><g><svg viewBox="0 0 81.52063638096912 90.7917818082937" height="90.7917818082937" width="81.52063638096912"><g><svg xmlns="http://www.w3.org/2000/svg" xmlns:xlink="http://www.w3.org/1999/xlink" version="1.1" x="0" y="0" viewBox="42.526999999999994 41.676 14.948 16.648000000000003" enable-background="new 0 0 100 100" xml:space="preserve" height="90.7917818082937" width="81.52063638096912" class="icon-icon-0" data-fill-palette-color="accent" id="icon-0"><path fill="#ffdc00" d="M50 51.661c0.731 0 1.324-0.593 1.324-1.324V43c0-0.731-0.593-1.324-1.324-1.324S48.676 42.269 48.676 43v7.337C48.676 51.068 49.269 51.661 50 51.661z" data-fill-palette-color="accent"></path><path fill="#ffdc00" d="M55.15 45.481c-0.529-0.505-1.366-0.484-1.872 0.045-0.504 0.53-0.484 1.368 0.046 1.872 0.968 0.923 1.501 2.149 1.501 3.453 0 2.661-2.165 4.825-4.825 4.825-0.75 0-1.478-0.176-2.153-0.516-0.125-0.064-0.25-0.132-0.365-0.201-0.582-0.358-1.075-0.829-1.464-1.396-0.075-0.109-0.149-0.223-0.214-0.338-0.412-0.727-0.629-1.547-0.629-2.374 0-1.306 0.533-2.532 1.5-3.453 0.53-0.504 0.551-1.342 0.047-1.872s-1.343-0.55-1.873-0.046c-1.498 1.426-2.322 3.333-2.322 5.371 0 1.284 0.336 2.556 0.973 3.677 0.1 0.178 0.213 0.354 0.332 0.53 0.602 0.877 1.363 1.603 2.27 2.159 0.174 0.106 0.355 0.205 0.545 0.303 1.059 0.533 2.188 0.804 3.354 0.804 4.121 0 7.474-3.353 7.474-7.473C57.474 48.815 56.648 46.908 55.15 45.481z" data-fill-palette-color="accent"></path></svg></g></svg></g></svg></g><defs></defs></svg><rect width="395.52" height="72.90625322929537" fill="none" stroke="none" visibility="hidden"></rect></g></svg></g></svg>