<svg xmlns="http://www.w3.org/2000/svg" version="1.1" xmlns:xlink="http://www.w3.org/1999/xlink" xmlns:svgjs="http://svgjs.dev/svgjs" width="2000" height="479" viewBox="0 0 2000 479"><g transform="matrix(1,0,0,1,-1.2121212121212466,-1.1890232372874152)"><svg viewBox="0 0 396 95" data-background-color="#ffffff" preserveAspectRatio="xMidYMid meet" height="479" width="2000" xmlns="http://www.w3.org/2000/svg" xmlns:xlink="http://www.w3.org/1999/xlink"><g id="tight-bounds" transform="matrix(1,0,0,1,0.2400000000000091,0.23581880488998763)"><svg viewBox="0 0 395.52 94.52836239022001" height="94.52836239022001" width="395.52"><g><svg viewBox="0 0 560.4677997981322 133.9505038616685" height="94.52836239022001" width="395.52"><g><rect width="7.164595546467017" height="95.33617508125677" x="139.02771852792955" y="19.307164390205863" fill="#111111" opacity="1" stroke-width="0" stroke="transparent" fill-opacity="1" class="rect-qz-0" data-fill-palette-color="primary" rx="1%" id="qz-0" data-palette-color="#111111"></rect></g><g transform="matrix(1,0,0,1,164.94779979813222,27.25184564697726)"><svg viewBox="0 0 395.52 79.44681256771398" height="79.44681256771398" width="395.52"><g id="textblocktransform"><svg viewBox="0 0 395.52 79.44681256771398" height="79.44681256771398" width="395.52" id="textblock"><g><svg viewBox="0 0 395.52 79.44681256771398" height="79.44681256771398" width="395.52"><g transform="matrix(1,0,0,1,0,0)"><svg width="395.52" viewBox="1.95 -35.45 230.73000000000002 46.35" height="79.44681256771398" data-palette-color="#111111"><g class="wordmark-text-0" data-fill-palette-color="primary" id="text-0"><path d="M16.5 0.6L16.5 0.6Q11.78 0.6 8.54-1.64 5.3-3.88 3.63-7.93 1.95-11.98 1.95-17.45L1.95-17.45Q1.95-22.88 3.6-26.93 5.25-30.98 8.46-33.21 11.68-35.45 16.35-35.45L16.35-35.45Q21.23-35.45 24.46-33.18 27.7-30.9 29.33-26.85 30.95-22.8 30.95-17.45L30.95-17.45Q30.95-11.98 29.28-7.93 27.6-3.88 24.38-1.64 21.15 0.6 16.5 0.6ZM16.5-4.75L16.5-4.75Q19.78-4.75 22.04-7.91 24.3-11.08 24.3-17.6L24.3-17.6Q24.3-23.88 22.19-27.06 20.08-30.25 16.35-30.25L16.35-30.25Q12.73-30.25 10.69-27.05 8.65-23.85 8.65-17.55L8.65-17.55Q8.65-11.03 10.81-7.89 12.98-4.75 16.5-4.75ZM46.15 0L41.15 0 33.2-24.9 39.55-24.9 42.55-13.05 43.85-7.8 44.95-13.05 48.2-24.9 53.4-24.9 56.85-13.05 58.15-7.8 59.3-13.05 62.2-24.9 68.35-24.9 60.5 0 55.45 0 51.45-13.55 50.65-17.6 49.85-13.55 46.15 0ZM78.75 0L72.35 0 72.35-24.9 78.15-24.9 78.27-21.63Q79.25-23.13 81-24.31 82.75-25.5 85.6-25.5L85.6-25.5Q89.4-25.5 91.25-23.1 93.1-20.7 93.1-16.45L93.1-16.45 93.1 0 86.7 0 86.7-15.9Q86.7-17.98 85.82-19.26 84.95-20.55 83.15-20.55L83.15-20.55Q81.4-20.55 80.07-19.26 78.75-17.98 78.75-15.9L78.75-15.9 78.75 0ZM106.44 10.9L100.39 10.9 100.39-24.9 106.34-24.9 106.34-24.1 105.84-20.6Q106.14-22.03 107.21-23.15 108.27-24.28 109.81-24.91 111.34-25.55 113.04-25.55L113.04-25.55Q117.99-25.55 120.27-22.09 122.54-18.63 122.54-12.8L122.54-12.8Q122.54-6.28 119.78-2.79 117.02 0.7 112.54 0.7L112.54 0.7Q109.77 0.7 108.11-1.03 106.44-2.75 105.84-4.95L105.84-4.95 106.44-0.25 106.44 10.9ZM111.09-4.25L111.09-4.25Q112.29-4.25 113.42-5.06 114.54-5.88 115.27-7.7 115.99-9.53 115.99-12.55L115.99-12.55Q115.99-16.75 114.56-18.6 113.12-20.45 111.19-20.45L111.19-20.45Q108.87-20.45 107.66-18.06 106.44-15.68 106.44-12.15L106.44-12.15Q106.44-8.63 107.68-6.44 108.92-4.25 111.09-4.25ZM138.29 0.5L138.29 0.5Q132.79 0.5 129.79-2.95 126.79-6.4 126.79-12.5L126.79-12.5Q126.79-18.65 129.89-22.08 132.99-25.5 138.49-25.5L138.49-25.5Q144.02-25.5 146.9-21.96 149.79-18.43 149.79-12.5L149.79-12.5Q149.79-6.58 146.8-3.04 143.82 0.5 138.29 0.5ZM138.39-4.5L138.39-4.5Q143.14-4.5 143.14-12.5L143.14-12.5Q143.14-20.55 138.39-20.55L138.39-20.55Q136.04-20.55 134.74-18.69 133.44-16.82 133.44-12.5L133.44-12.5Q133.44-8.2 134.74-6.35 136.04-4.5 138.39-4.5ZM165.14 0L160.14 0 152.19-24.9 158.54-24.9 161.54-13.05 162.84-7.8 163.94-13.05 167.19-24.9 172.39-24.9 175.84-13.05 177.14-7.8 178.29-13.05 181.19-24.9 187.34-24.9 179.49 0 174.44 0 170.44-13.55 169.64-17.6 168.84-13.55 165.14 0ZM201.44 0.65L201.44 0.65Q197.24 0.65 194.66-1.11 192.09-2.88 190.91-5.79 189.74-8.7 189.74-12.15L189.74-12.15Q189.74-15.78 191.07-18.81 192.41-21.85 195-23.68 197.59-25.5 201.34-25.5L201.34-25.5Q206.94-25.5 209.16-22.26 211.39-19.03 211.39-13.1L211.39-13.1Q211.39-12.58 211.36-11.78 211.34-10.98 211.29-10.4L211.29-10.4 196.29-10.4Q196.44-7.45 197.95-5.78 199.46-4.1 202.49-4.1L202.49-4.1Q204.04-4.1 205.81-4.79 207.59-5.48 208.44-6.45L208.44-6.45 210.44-1.7Q209.44-1.03 207.27-0.19 205.11 0.65 201.44 0.65ZM196.24-14.3L196.24-14.3 205.04-14.3Q205.04-16.93 204.57-18.31 204.11-19.7 203.31-20.23 202.51-20.75 201.49-20.75L201.49-20.75Q198.94-20.75 197.66-18.86 196.39-16.98 196.24-14.3ZM223.28 0L217.03 0 217.03-24.9 222.68-24.9 222.98-20.5Q223.38-21.48 224.22-22.58 225.06-23.68 226.55-24.44 228.03-25.2 230.38-25.2L230.38-25.2Q231.11-25.2 231.66-25.1 232.21-25 232.68-24.8L232.68-24.8 231.28-18.25Q230.48-19.05 228.83-19.05L228.83-19.05Q226.91-19.05 225.68-18.26 224.46-17.48 223.87-16.5 223.28-15.53 223.28-15L223.28-15 223.28 0Z" fill="#111111" data-fill-palette-color="primary"></path></g></svg></g></svg></g></svg></g></svg></g><g><svg viewBox="0 0 120.27223280419392 133.9505038616685" height="133.9505038616685" width="120.27223280419392"><g><svg xmlns="http://www.w3.org/2000/svg" xmlns:xlink="http://www.w3.org/1999/xlink" version="1.1" x="0" y="0" viewBox="42.526999999999994 41.676 14.948 16.648000000000003" enable-background="new 0 0 100 100" xml:space="preserve" height="133.9505038616685" width="120.27223280419392" class="icon-icon-0" data-fill-palette-color="accent" id="icon-0"><path fill="#ffdc00" d="M50 51.661c0.731 0 1.324-0.593 1.324-1.324V43c0-0.731-0.593-1.324-1.324-1.324S48.676 42.269 48.676 43v7.337C48.676 51.068 49.269 51.661 50 51.661z" data-fill-palette-color="accent"></path><path fill="#ffdc00" d="M55.15 45.481c-0.529-0.505-1.366-0.484-1.872 0.045-0.504 0.53-0.484 1.368 0.046 1.872 0.968 0.923 1.501 2.149 1.501 3.453 0 2.661-2.165 4.825-4.825 4.825-0.75 0-1.478-0.176-2.153-0.516-0.125-0.064-0.25-0.132-0.365-0.201-0.582-0.358-1.075-0.829-1.464-1.396-0.075-0.109-0.149-0.223-0.214-0.338-0.412-0.727-0.629-1.547-0.629-2.374 0-1.306 0.533-2.532 1.5-3.453 0.53-0.504 0.551-1.342 0.047-1.872s-1.343-0.55-1.873-0.046c-1.498 1.426-2.322 3.333-2.322 5.371 0 1.284 0.336 2.556 0.973 3.677 0.1 0.178 0.213 0.354 0.332 0.53 0.602 0.877 1.363 1.603 2.27 2.159 0.174 0.106 0.355 0.205 0.545 0.303 1.059 0.533 2.188 0.804 3.354 0.804 4.121 0 7.474-3.353 7.474-7.473C57.474 48.815 56.648 46.908 55.15 45.481z" data-fill-palette-color="accent"></path></svg></g></svg></g></svg></g><defs></defs></svg><rect width="395.52" height="94.52836239022001" fill="none" stroke="none" visibility="hidden"></rect></g></svg></g></svg>