<svg xmlns="http://www.w3.org/2000/svg" version="1.1" xmlns:xlink="http://www.w3.org/1999/xlink" xmlns:svgjs="http://svgjs.dev/svgjs" width="128" height="128" viewBox="0 0 128 128"><g transform="matrix(0.8046875,0,0,0.8046875,12.338923581853535,7.556766570723681)"><svg viewBox="0 0 86 95" data-background-color="#ffffff" preserveAspectRatio="xMidYMid meet" height="141" width="128" xmlns="http://www.w3.org/2000/svg" xmlns:xlink="http://www.w3.org/1999/xlink"><g id="tight-bounds" transform="matrix(1,0,0,1,0.13449098990869857,-0.24049999999999727)"><svg viewBox="0 0 85.73101802018259 95.481" height="95.481" width="85.73101802018259"><g><svg viewBox="0 0 85.73101802018259 95.481" height="95.481" width="85.73101802018259"><g><svg viewBox="0 0 85.73101802018259 95.481" height="95.481" width="85.73101802018259"><g id="textblocktransform"><svg viewBox="0 0 85.73101802018259 95.481" height="95.481" width="85.73101802018259" id="textblock"><g><svg viewBox="0 0 85.73101802018259 95.481" height="95.481" width="85.73101802018259"><g><svg viewBox="0 0 85.73101802018259 95.481" height="95.481" width="85.73101802018259"><g><svg xmlns="http://www.w3.org/2000/svg" xmlns:xlink="http://www.w3.org/1999/xlink" version="1.1" x="0" y="0" viewBox="42.526999999999994 41.676 14.948 16.648000000000003" enable-background="new 0 0 100 100" xml:space="preserve" height="95.481" width="85.73101802018259" class="icon-icon-0" data-fill-palette-color="accent" id="icon-0"><path fill="#ffdc00" d="M50 51.661c0.731 0 1.324-0.593 1.324-1.324V43c0-0.731-0.593-1.324-1.324-1.324S48.676 42.269 48.676 43v7.337C48.676 51.068 49.269 51.661 50 51.661z" data-fill-palette-color="accent"></path><path fill="#ffdc00" d="M55.15 45.481c-0.529-0.505-1.366-0.484-1.872 0.045-0.504 0.53-0.484 1.368 0.046 1.872 0.968 0.923 1.501 2.149 1.501 3.453 0 2.661-2.165 4.825-4.825 4.825-0.75 0-1.478-0.176-2.153-0.516-0.125-0.064-0.25-0.132-0.365-0.201-0.582-0.358-1.075-0.829-1.464-1.396-0.075-0.109-0.149-0.223-0.214-0.338-0.412-0.727-0.629-1.547-0.629-2.374 0-1.306 0.533-2.532 1.5-3.453 0.53-0.504 0.551-1.342 0.047-1.872s-1.343-0.55-1.873-0.046c-1.498 1.426-2.322 3.333-2.322 5.371 0 1.284 0.336 2.556 0.973 3.677 0.1 0.178 0.213 0.354 0.332 0.53 0.602 0.877 1.363 1.603 2.27 2.159 0.174 0.106 0.355 0.205 0.545 0.303 1.059 0.533 2.188 0.804 3.354 0.804 4.121 0 7.474-3.353 7.474-7.473C57.474 48.815 56.648 46.908 55.15 45.481z" data-fill-palette-color="accent"></path></svg></g></svg></g></svg></g></svg></g></svg></g></svg></g><defs></defs></svg><rect width="85.73101802018259" height="95.481" fill="none" stroke="none" visibility="hidden"></rect></g></svg></g></svg>